<svg xmlns="http://www.w3.org/2000/svg" width="2000pt" height="2000pt" version="1.0" viewBox="0 0 2000 2000"><path d="M5.8 224.4c-1 .7-1.8 1.8-1.8 2.5 0 1.6 2.7 5.8 7.2 10.9 2 2.4 5.8 7.8 8.4 12s5.3 8 5.9 8.4 2.7 3.7 4.5 7.3c1.9 3.7 4.4 7.4 5.6 8.4 1.1.9 2.9 3 3.7 4.6.9 1.7 3.5 5 5.7 7.3 2.2 2.4 4 4.7 4 5.2 0 .8 14.7 23.5 18.8 29 1 1.4 3.4 5.2 5.2 8.5 1.9 3.3 6 9.4 9 13.5 3.1 4.1 6.9 9.6 8.4 12.3 1.6 2.6 3.5 5.3 4.5 6 .9.6 2.9 3.8 4.5 6.9 1.5 3.2 3.9 6.9 5.2 8.3s2.4 2.9 2.4 3.3c0 1.3 25.5 41 29.4 45.8 1.4 1.7 3 4.3 3.5 5.7.6 1.4 3.4 6.1 6.3 10.5s8 12.2 11.3 17.2c3.3 5.1 7.2 11.1 8.7 13.4 1.5 2.2 3.2 5 3.8 6.1.5 1.1 2.6 4.2 4.5 7 7.8 11.1 11 16.1 12 18.1.6 1.1 2.7 4.5 4.7 7.5 3.3 4.8 7.5 11.1 21.1 32.1 2 3.2 4.2 5.8 4.7 5.8.6 0 1 .5 1 1.2s2.5 5.1 5.5 9.9 5.5 9.1 5.5 9.7 1.9 3.5 4.3 6.4 4.9 6.8 5.5 8.7c.6 1.8 2.3 4.7 3.8 6.4 2.5 3 14.7 21.8 18.4 28.2 5.6 9.7 12.4 20.3 14.5 22.5 1.3 1.4 3.4 4.7 4.6 7.5 1.2 2.7 3 5.9 4.1 7.1 1 1.2 3.3 4.4 5.1 7.2 3.5 5.6 11.9 18.2 24.4 36.8 4.5 6.7 9.1 13.9 10.2 16 1.2 2.2 3 5 4 6.4 1.1 1.4 3.6 5.2 5.8 8.4 2.1 3.3 4.9 7.6 6.3 9.6 1.4 2.1 4.5 7.1 6.9 11.1 2.5 4.1 6.8 11 9.6 15.4s7.8 12.2 11.1 17.3c5.5 8.6 11.3 17 18.2 26.7 1.6 2.2 4.2 6.2 5.6 8.9 1.5 2.7 3.8 6.3 5.1 8 1.2 1.7 3.7 5.7 5.5 8.8 1.7 3.2 3.8 5.8 4.5 5.8s1.6 1.5 1.9 3.4c.4 1.8 1.5 4.1 2.6 5.1 1.9 1.7 10.2 14.4 23.8 36.5 13.2 21.4 15.7 25.3 22.5 35.6 3.7 5.7 7.2 10.6 7.7 10.9s2.6 3.6 4.6 7.3c5 9.1 12 18.8 14 19.6 1.1.4 3.1-1 6.5-4.5 2.7-2.8 4.9-5.7 4.9-6.3s1.3-2.7 2.9-4.6c1.5-1.9 3.6-4.9 4.5-6.5 2.3-4.3 3.7-6.4 7.4-11.8 1.9-2.6 4.6-6.9 6-9.5 3.1-5.5 8.7-13.7 15.5-22.9 2.7-3.5 5.3-7.7 5.9-9.4.5-1.6 1.9-3.4 2.9-4 1-.5 2.6-2.6 3.4-4.6.9-2.1 3.5-6.2 5.8-9.2 5-6.4 7.4-10.2 12.3-19.6 2-3.9 4.4-7.9 5.4-9 2.8-3.1 2.8-5.7 0-7.1-1.3-.7-3.8-4-5.5-7.2-1.6-3.3-5.6-9.9-8.9-14.8-13.9-21.2-25.6-39.5-25.6-40.2 0-.4-1.8-3-4.1-5.7-2.2-2.7-4.8-6.3-5.6-8-.9-1.6-3.8-6.3-6.5-10.2-2.6-4-5.3-8.4-5.8-9.7-.5-1.4-4.9-8.3-9.7-15.3s-9.7-14.1-10.8-15.9-3.7-5.8-5.8-9c-2.2-3.1-4.2-6.5-4.5-7.4-.4-.9-1.7-3-3-4.6s-7.2-10.6-13.2-19.9c-5.9-9.4-12.5-19.5-14.6-22.5s-7.9-11.8-12.7-19.5c-4.9-7.7-11.3-17.6-14.2-22-2.8-4.4-5.8-9.1-6.5-10.5s-5.3-8.8-10.3-16.5-11.1-17.2-13.5-21c-2.5-3.9-7.9-11.7-12.1-17.4-4.2-5.8-8.9-12.9-10.6-15.8-1.6-2.9-7.4-11.9-12.9-20-5.4-8-11.2-17.1-12.8-20.2s-4-6.7-5.2-8.1c-2.3-2.5-11.8-16.7-22.6-33.6-3-4.7-7.6-11.6-10.2-15.2-2.7-3.5-4.8-6.9-4.8-7.5s-1.8-3.4-4.1-6.3c-8.4-10.9-16.9-25.9-16.9-29.9 0-6.5.8-7.5 6.1-7.5 3.5 0 4.9-.4 4.9-1.4 0-1.9 43.1-2.9 108.5-2.4 56.8.3 51.2-.5 61.1 9.6 3.2 3.1 6.1 7.2 6.6 8.9.5 1.8 1.9 3.8 3.1 4.5 2.9 1.5 4.2 3.3 6.8 8.8 1.1 2.5 3.1 5.6 4.4 7 2.3 2.5 3 3.5 14.2 22.2 8.5 14.1 21.6 34 26.4 40.2 1.2 1.5 4.9 7.2 8.2 12.5s7 11.2 8.3 13.1 3 5.1 3.9 7c2.3 5 3.8 7.5 6.6 10.9 2.5 3.2 8.7 12.1 14.2 20.6 1.8 2.7 7.3 10.8 12.2 18 4.8 7.1 10.1 15.8 11.7 19.3 1.6 3.4 3.5 6.5 4.3 6.8s3.1 3.6 5.1 7.2c2 3.7 4.4 7.5 5.3 8.5 1.7 2 8.1 12.3 16 25.8 2.8 4.8 5.8 9.2 6.6 9.9s2.4 3.3 3.5 5.8c1.2 2.5 3.8 6.9 5.9 9.6 2.1 2.8 4.4 6.2 5.1 7.6.7 1.3 3.8 5.8 6.8 9.9s7.1 10.2 9.1 13.5c2 3.4 4.4 7.2 5.3 8.6 5 7.1 12.5 18.8 13.6 21.4.7 1.6 2.8 4.7 4.6 7 1.8 2.2 4.1 5.6 5 7.4s3.4 5.4 5.4 8.1c2 2.6 4.9 6.3 6.3 8.2 1.5 1.9 3.9 6.4 5.3 10 3 7.6 3.1 7.3-4.7 18.8-2 3.1-10.8 16.1-19.5 29-8.6 12.8-17.5 26.2-19.7 29.7-4.9 7.7-8.7 13.5-14.3 22-2.3 3.5-4.6 7.3-5 8.4-.4 1-1.7 3.2-3 4.7-3.9 4.8-14.4 20.9-35.7 54.3-2.7 4.3-5.7 8.6-6.6 9.7-.9 1-2.6 3.7-3.7 5.9-3.2 6.3-23.3 36.3-35.2 52.6-8 10.9-15.5 21.8-22.2 32.3-2.8 4.4-6.3 9.8-7.8 12-1.4 2.2-4.1 6.9-6 10.5-1.8 3.6-5 8.5-7 11-2.1 2.5-7.1 9.9-11.3 16.5-4.1 6.6-9.5 15.1-11.9 18.9s-4.9 7.5-5.6 8.3c-.8.7-2.9 4.4-4.8 8.1-4.3 8.4-9.1 15.5-13.9 20.7-2.1 2.3-4.5 5.7-5.5 7.7s-3.3 5.6-5.3 8c-1.9 2.4-4.2 5.9-5.1 7.8-.8 1.9-2.4 4.6-3.5 6-1 1.4-7 10.4-13.2 20s-13.3 20.3-15.8 23.7c-5 6.7-14 20.6-19 29.3-3.9 6.8-22.2 35.1-26.3 40.5-4.2 5.7-10.7 15.7-14.8 22.9-6.4 11.1-7.4 12.7-15.7 25-7.6 11.1-20.7 30.3-22.6 33-.4.6-3.8 5.9-7.5 11.8-9.1 14.4-14.1 21.8-16.7 24.8-1.2 1.4-3.9 5.4-5.9 9-4.3 7.6-9.1 14.8-13.7 20.6-1.8 2.3-4.2 6-5.3 8.2-1.2 2.3-3.9 6.7-6 9.9-2.2 3.2-6.8 10.3-10.3 15.8-3.6 5.5-10.1 15.5-14.6 22.3-4.5 6.7-9.1 14-10.2 16.1-1.1 2.2-2.7 4.7-3.6 5.7-1.7 1.9-20.5 30.1-27 40.4-1.9 3-7.1 11-11.6 17.8-4.6 6.9-8.3 13-8.3 13.6 0 .7-1.5 3-3.4 5.2-1.8 2.1-4.1 5.5-5.1 7.4s-3.5 5.5-5.5 8-6.1 8.3-9 13-9.7 15-15 23c-17.5 26.3-21.5 32.4-26.5 40.3-2.8 4.3-6.4 9.8-8.2 12.2-1.7 2.4-3.9 5.8-4.9 7.6-1.9 3.8-10.1 16-18 26.9-3 4.1-7.5 10.6-10 14.5-2.5 3.8-6.3 9-8.3 11.5s-7.1 9.7-11.4 16c-4.2 6.3-10.1 14.9-13.1 19-7.2 9.8-9 13-7.9 14.1.5.5 117.5.8 280.4.7l279.4-.3 4.7-2.8c5.6-3.3 16-17.2 26.2-35.1 6.3-11 17.1-28.4 21-33.8 2.2-3.1 6.8-10.1 10.1-15.5 3.2-5.4 7.3-11.6 9.1-13.8 1.7-2.2 4-5.6 5-7.6 1.1-2 8.5-13.5 16.5-25.5 8.1-12.1 15.4-23.3 16.3-24.9 1.7-3.2 9.8-15.5 18.1-27.5 9.2-13.4 18-27.2 25-38.9 2.2-3.7 5-8 6.2-9.5s2.5-3.7 2.9-4.9c.3-1.2 1.4-3.1 2.4-4.2s3.2-4.6 4.9-7.8 4-7.1 5.1-8.5c2.1-2.7 17-25.5 24.2-36.9 2-3.2 8.5-13 14.5-21.8 5.9-8.9 12.4-18.7 14.3-21.9s4.7-7 6.2-8.3c1.5-1.4 3-3.7 3.3-5.2.3-1.4 1.9-4.4 3.6-6.6 1.6-2.2 3.7-5.3 4.7-6.9.9-1.6 3.9-6.3 6.7-10.5 2.7-4.2 5.7-8.8 6.5-10.2 2.5-4.3 5-8.3 16.8-26.2 6.2-9.5 13.6-21.1 16.4-26 2.8-4.8 5.5-9 5.9-9.3 1.7-1 .9-6.5-1.5-10.2-1.3-2-6.7-10.9-12.1-19.7S854 1278 851.8 1275s-5.4-7.6-7.1-10.2c-1.8-2.6-6.2-9.1-9.8-14.5s-9.4-14.4-12.8-20.1-7-11.5-8-13c-2-3-9.1-14-16.1-25.3-2.5-4-7.6-12.1-11.5-18-6.3-9.8-10-15.6-23-36.5-2.2-3.5-8.7-13.7-14.5-22.6-5.8-9-12.5-19.7-14.8-23.8-2.4-4.1-5.8-9.3-7.7-11.5-4-4.8-4-4.8-11.5 7.5-2.9 4.7-6 9.4-7 10.5s-3.5 5.4-5.5 9.5c-2.1 4.1-4.8 8.8-6 10.5-1.3 1.6-3 4.6-3.8 6.6-.8 1.9-5 8.3-9.3 14.1-4.4 5.9-11.8 16.6-16.7 24-12.2 18.6-15.1 22.8-18.5 26.8-8.9 10.5-9.4 17-2.3 26.5 2.3 3 4.5 6.3 4.8 7.2.4 1 2.5 4.3 4.8 7.3 6.4 8.4 12.5 18.2 12.5 20 0 .8 1.2 2.7 2.8 4.1 1.5 1.4 4.4 5.2 6.5 8.5 2 3.2 6.1 9.4 9 13.6 8.4 12.3 12.9 19.7 16.9 28 2.1 4.2 4.2 7.9 4.7 8.3.5.3 1.7 3 2.5 6 1.8 6.1 1.3 8.1-4 15.1-1.7 2.2-4.3 7.1-5.9 10.7-1.5 3.7-3.2 6.7-3.6 6.7s-2.3 2.6-4.2 5.7c-1.8 3.2-6.3 9.7-9.8 14.5s-9.5 13.1-13.2 18.5c-6.8 9.7-10.1 14.6-24.7 37.6-8.5 13.4-12.5 19.5-26.1 39.8-5.3 7.9-10.4 16-11.4 17.9s-2.9 4.8-4.2 6.4c-1.4 1.7-3.6 5.3-4.9 8-1.3 2.8-3.8 7.2-5.6 9.8-3.9 5.5-7.9 11.8-12.8 19.8-1.9 3.2-6.2 9.7-9.5 14.5-6.9 10-8 11.7-19.5 30.1-4.7 7.5-9.8 15.7-11.5 18.3-1.6 2.6-5.7 9.2-8.9 14.7-8.5 14.2-11.2 17.3-17.6 20.3l-5.5 2.6H302.1l-3-2.9c-4.9-4.7-4-7.6 5.6-19.3 2.6-3.2 8.5-11.7 13.1-18.8 4.7-7.2 10.9-16.6 13.7-21 2.9-4.4 8.9-13.7 13.3-20.7 4.4-6.9 10.6-16.3 13.9-20.7 7.2-10 16.3-23.8 22.4-33.9 6.4-10.9 18.7-29.2 21.5-32.2 1.2-1.4 3.5-4.7 4.9-7.5 1.5-2.7 3.9-6.4 5.3-8.1 1.5-1.8 5.4-7.5 8.7-12.9 3.3-5.3 11.1-17.4 17.3-26.8 12.7-19.3 15-22.8 24-37.7 3.5-5.8 7.1-11.4 8.2-12.5 1-1.1 2.9-4.3 4.3-7.1s3.7-6.4 4.9-8c2-2.4 11.4-16.2 19.4-28.4 4.6-7 13.1-20 21.5-33 5.2-8 12.6-19.3 16.4-25.2 3.9-5.9 9.2-14.2 11.8-18.5 2.7-4.3 9-14.2 14-22.1 5.1-7.9 10.8-17.1 12.8-20.5s4.8-7.4 6.3-8.9 3.4-4.4 4.2-6.3c.8-2 2.9-5.2 4.7-7.3 1.9-2 4.8-6.4 6.7-9.7 1.8-3.3 4.3-7.3 5.6-8.8 1.3-1.6 2.4-3.4 2.4-4.2 0-.7 1.8-3.5 4-6.1 2.2-2.7 4.7-6.4 5.6-8.4.9-1.9 2.6-4.6 3.8-6s4-5.4 6.1-9 4.7-7.6 5.8-9c2-2.6 12.2-18.5 22.2-34.6 3.3-5.3 6.9-10.6 8.1-11.8 1.1-1.1 3.5-4.6 5.2-7.7 1.7-3 5.4-8.5 8.2-12.2 2.7-3.7 5.7-8.2 6.6-10s3.1-5.2 4.8-7.7 5.8-9 9-14.5c3.3-5.5 6.9-11.1 8.2-12.5 1.2-1.4 3.9-5.3 5.9-8.8 2-3.4 4-6.2 4.5-6.2s1.9-1.9 3.1-4.2c1.2-2.4 4-7 6.4-10.3 2.3-3.3 4.4-6.5 4.6-7 .2-.6 3.9-6.4 8.3-13 4.3-6.6 9.4-14.5 11.3-17.5 6.1-9.6 24.4-37.2 29.7-44.8 7.2-10.4 8.1-11.7 14.3-21.7 3.1-5 6.8-10.8 8.3-13s4.9-7.8 7.5-12.5 5.6-9.4 6.6-10.6c1.1-1.1 3.5-4.6 5.4-7.8s4.6-7.2 6.1-8.9c2.4-3 8.3-11.7 13-19.3 1.1-1.9 3-4.4 4.1-5.6 1.1-1.3 3.3-4.6 4.8-7.3 1.6-2.8 3.7-5.9 4.7-7.1 3.6-4.1 12.9-22.6 12.2-24.6-.3-1.1-3.6-6.2-7.2-11.4-3.7-5.2-8.7-12.6-11.2-16.4s-9-13.6-14.5-21.8c-10.9-16.3-22.7-34.7-29-45.2-6-10-9.4-15.4-15.3-23.7-2.9-4.1-6.1-9.2-7.2-11.3-1-2-3.4-5.7-5.2-8.1-1.9-2.4-4.7-6.7-6.2-9.4-1.6-2.8-8.1-12.8-14.5-22.3-6.4-9.6-15.3-23.1-19.8-30-4.5-7-10.1-15.4-12.3-18.7-9.4-14.1-12.6-18.9-15-22.9-1.4-2.3-3.3-5.3-4.3-6.7-2-2.6-10.6-15.9-14.7-22.8-1.4-2.3-7.9-12.3-14.5-22.2s-13.7-20.8-15.8-24.2-4.6-6.9-5.6-7.8c-1-.8-2.6-3-3.6-4.9-1-1.8-3.3-5.6-5.2-8.3-2-2.8-4.1-6.4-4.8-8.1-1.8-4.1-24.3-38.4-37.5-57.1-4.8-6.8-6.3-9.1-12.5-19.5-2.2-3.7-7.6-12-11.9-18.6-15.8-23.6-17.3-26-20.9-32.4-1.9-3.6-4.5-7.4-5.6-8.4s-2.6-3.5-3.2-5.4c-.7-2-2.6-5.9-4.4-8.7-1.8-2.7-4.4-7.3-5.8-10-1.4-2.8-5.2-7.9-8.4-11.3l-5.9-6.2H264.9c-212.4.1-257.7.3-259.1 1.4"/><path d="M599 224.4c0 .8.4 1.7.9 2.1 1.9 1.1 19.2 24.6 22.8 30.7 2 3.5 4.3 7.2 5.3 8.3.9 1.1 3.1 4.5 4.9 7.5s4.8 7.7 6.7 10.5c4.1 5.9 17.8 27.8 21.9 35 4.9 8.7 8.5 14.7 13.6 23 2.7 4.4 6.3 10.4 8 13.2 1.7 2.9 3.4 5.3 3.7 5.3.4 0 2.3 1.5 4.2 3.3l3.4 3.2h227.7l5 5.2 4.9 5.2v10.3c0 5.8-.5 13.1-1.1 16.4-.6 3.2-1.5 20.1-2 37.4s-1.1 324.2-1.4 682l-.6 650.6 5.3 1.9c5.1 1.9 7.9 2 71.1 1.8 36.3-.1 66.2-.5 66.5-.8.4-.4.5-315.4.3-700.1s0-701 .3-702.9c.4-2.1 1.6-4 2.9-4.7 1.7-1 26.9-1.4 115.7-1.8 130-.6 116.2.6 125.5-10.9 3-3.8 5.5-7.3 5.5-8 0-.6 1-2.1 2.3-3.3 1.2-1.2 4-5.2 6.2-8.9s6-10 8.4-14.1c2.4-4 6.7-10.9 9.6-15.3s5.6-9.1 6-10.4 2.7-4.8 5.1-7.8 4.4-6 4.4-6.7 1-2.4 2.3-3.8c3.2-3.5 7.4-9.9 8.2-12.6.3-1.2 1.5-2.7 2.6-3.3s2.8-2.9 3.8-5.2 4.8-7.7 8.5-11.9c6.8-7.9 14.1-19.9 12.9-21.1-.3-.4-180.8-.7-401-.7-347.9 0-400.3.2-400.3 1.4"/><path d="M1482.5 224.4c-1.1.7-3.4 1.7-5.2 2-1.8.4-4.4 1.7-5.9 2.8-2.9 2.4-9.5 12.3-14.9 22.5-2 3.7-5.2 9.5-7.2 12.8-1.9 3.3-6.9 11.6-11.1 18.5-4.1 6.9-9.2 15-11.3 18s-3.8 6-3.8 6.7c-.1.7-1 1.7-2.2 2.3-1.1.6-3.4 4-5 7.5-1.6 3.6-4.3 7.9-5.9 9.7-1.7 1.8-3 3.8-3 4.4 0 1-4.6 8.3-13 20.9-18.5 27.8-23.9 35.7-26.7 39.4-1.8 2.4-3.3 4.8-3.3 5.2 0 .5-4.6 7.6-10.2 15.9-5.7 8.3-12.8 19-15.8 23.8-3 4.9-7.1 11.2-9 14.1-3.6 5.5-10.6 16.8-16 25.8-1.7 2.9-3.5 5.5-4 5.8s-2.4 3.4-4.4 6.9c-1.9 3.4-4.3 6.9-5.2 7.7s-2.4 3-3.2 4.9-3 5.5-4.8 8c-9.8 13-13.8 18.8-15.1 21.7-1.6 3.9-9.6 16.7-15.5 24.7-2.4 3.2-5.7 8.4-7.3 11.5-1.7 3.2-4.4 7.5-6 9.7-4.4 5.7-16.5 23.6-20.2 29.9-1.7 2.9-4.6 7.4-6.5 9.8-1.8 2.5-4.1 5.8-5.1 7.4-.9 1.5-3.6 5.8-6 9.5-2.3 3.7-7.5 12-11.6 18.5s-8.4 12.9-9.7 14.3c-1.2 1.4-3.8 5.5-5.8 9.1s-4.5 7.4-5.6 8.4-2 2.3-2 2.8c0 .6-3.5 6.2-7.8 12.6s-9.6 14.5-11.6 18.1c-2.1 3.6-5.5 8.5-7.5 11-6.3 7.6-9.3 13.8-9.4 18.9-.1 6.6 0 6.7 24.8 44.6 3.9 6 8.9 13.6 11.1 16.9 2.1 3.2 5.7 8.6 7.9 12s4.8 7.3 5.8 8.7c2.1 2.8 10.9 16.7 15.2 24 1.7 2.8 4.8 7.9 7.1 11.2 2.3 3.4 5.1 8.1 6.2 10.4 1.2 2.3 2.8 4.6 3.6 5 .8.5 2.7 3.1 4.1 5.8 1.5 2.7 3.9 6.5 5.4 8.5 1.5 1.9 5.3 7.8 8.6 13s7.5 11.7 9.5 14.5c1.9 2.7 4.6 7.1 6 9.7 1.4 2.7 4.2 7.2 6.2 10.1 5.7 7.9 14 20.6 17.6 26.7 1.8 3 5.1 8 7.3 11 4.4 6.1 9.1 13 15.8 23.5 2.4 3.8 7.4 11.6 11 17.2 3.6 5.5 8.6 13.3 11.1 17.3s6.2 9.5 8.3 12.3c2.1 2.9 4.9 7.5 6.2 10.4 1.4 2.8 3.3 5.8 4.3 6.5.9.7 2.9 3.5 4.3 6.2 1.5 2.7 4.1 6.8 5.8 9 3.3 4.3 4.9 6.7 25.5 39.1 7 11 13.6 21.1 14.7 22.5 4.8 6.4 19.8 29.3 24.4 37.3 1.5 2.7 3.4 5.1 4.1 5.4s1.8 2 2.4 3.9c.7 1.9 2.9 5.6 5 8.2 2.1 2.7 4.5 6.3 5.4 8s3.6 5.6 6 8.6c2.4 2.9 5.2 6.9 6.1 8.7 1 1.9 3.5 6 5.7 9.3 2.2 3.2 5.5 8.9 7.5 12.8 1.9 3.8 4.1 7.2 4.8 7.5.8.3 2.1 1.8 2.9 3.4.8 1.7 4.7 7.6 8.6 13.2 7.2 10.3 13.7 20.3 22 33.6 2.5 4 5.5 8.7 6.7 10.4 1.2 1.8 3.1 4.8 4.3 6.7 1.1 1.9 4.9 7.5 8.5 12.5 3.6 4.9 8.1 11.8 10.1 15.3 2 3.4 4.4 6.7 5.5 7.3 1 .5 1.9 1.4 1.9 2 0 .5 2.6 5 5.8 9.8 10.7 16.6 13.7 21.6 14.7 24.4.6 1.6 2 3.9 3.1 5 1.2 1.2 4.7 6 7.8 10.7s7 10.5 8.7 13c6.7 9.9 16.7 25.9 20.1 32 1.9 3.6 6.4 10.3 9.9 14.9 3.5 4.5 7.4 10.1 8.6 12.3 1.2 2.3 3.1 5.1 4.2 6.2 1 1.2 3.6 4.8 5.6 8.1 2.1 3.3 5.8 8.3 8.2 11.2s4.6 6.2 4.8 7.3c.5 2.5 3.9 8.3 7.4 12.6 2.5 3 5 6.8 15.3 23.3 5.9 9.5 21.5 33.6 28.7 44.4 3 4.5 8.2 11.5 11.5 15.5 7.4 8.9 9.6 12.2 9.6 14.3s-4.7 5.4-9 6.3c-1.9.4-48 .7-102.3.6-98.5 0-106.4-.3-110.9-3.5-2.5-1.6-16.3-20.5-18.9-25.7-1.2-2.4-4.1-7.2-6.4-10.8-12.4-19.2-25.9-40.2-34.4-53.5-10.4-16.4-23.8-37.3-28.8-45.1-1.8-2.7-5.3-7.7-7.8-11.1-2.4-3.4-6.1-9-8.2-12.5-2-3.5-4.8-8.1-6.3-10.3s-5.6-8.5-9-14c-3.5-5.5-6.6-10.2-7-10.5-.3-.3-2.4-3.4-4.5-7s-4.8-7.6-6-9-4.3-5.9-7-10-7.3-11.3-10.3-16c-3.1-4.7-6.3-9.6-7.3-11-14-19.2-21.2-29.5-23.9-34-1.7-3-4.7-7.9-6.6-10.9-5-8-5.2-10.5-1.4-20.8 1.7-4.8 3.9-9.7 4.9-10.8 2.4-2.7 7.1-11.4 7.1-13.1 0-.8.9-1.9 2.1-2.6 1.1-.7 3.8-4.5 6-8.3 2.2-3.9 8.6-13.8 14.2-22.1s12.7-19.1 15.7-24 6.2-9.5 7-10.4c.8-.8 2.8-4.1 4.4-7.3 2.5-4.8 2.9-6.9 2.9-13-.1-8.3-2.7-14.6-10.6-25.3-2.4-3.3-5-7.2-5.7-8.5s-3-4.5-5.2-7c-2.1-2.6-4.5-6.4-5.4-8.5-.9-2.2-3-5.7-4.8-7.9-1.7-2.1-5.6-7.8-8.6-12.7-3-4.8-6.8-10.8-8.5-13.4-6.7-10.5-7.5-12-8.5-15.6-.6-2.1-1.8-3.9-2.9-4.3-1-.3-3.2-3.4-4.9-6.8-3.1-6.2-10.9-15.7-12.9-15.7-.6 0-3.3 1.5-5.9 3.2-4.4 3-5 3.9-6.4 9.4-1.2 4.5-2.9 7.6-6.8 12.2-2.8 3.4-5.5 7.7-6 9.4-1 3.7-9.1 16.7-15 24.3-2.2 2.7-4.3 6.1-4.7 7.5s-1.7 3.6-3 5c-1.2 1.4-3.2 4.3-4.5 6.5-4.2 7.2-19.8 31-21.5 32.8-.9 1-2.4 3.7-3.5 6-1 2.3-3.3 6.2-5.1 8.7-1.9 2.5-4.3 6.2-5.4 8.3-1.1 2-3.6 6.1-5.6 9-5 7.1-24.7 37.6-36.9 57.2-3.8 6-8.9 13.7-11.3 17-2.5 3.3-7 9.8-10.1 14.5s-6.6 9.5-7.8 10.7l-2.1 2.2 2.5 3.8c1.4 2.1 3.8 6 5.3 8.8 1.5 2.7 3.8 6.3 5 8 1.2 1.6 2.6 4.1 3 5.5.4 1.3 2.8 5.1 5.2 8.5 2.4 3.3 6.5 9.1 9 13 31 46.9 32.1 48.5 36.8 55.9 2.2 3.5 4.7 7.4 5.6 8.7s4.1 6.4 7.2 11.4c3.1 4.9 6.8 10.6 8.2 12.5s7.3 10.7 13.1 19.5 11.4 16.9 12.4 18c1.1 1.1 3.1 4.2 4.5 6.9 1.4 2.6 6.1 10.2 10.5 16.7s8 12.2 8 12.6 2.4 4.3 5.3 8.7c3 4.5 6.6 10 8.1 12.4 1.5 2.3 4.3 6.1 6.2 8.2 2 2.2 3.4 4.6 3.1 5.4s1.7 4.5 4.6 8.4c2.9 3.8 6 8.2 6.9 9.8 1 1.6 3.4 4.8 5.3 7.2 2.2 2.7 3.5 5.4 3.5 7.2 0 2.1.9 3.6 3 5.2 1.7 1.2 3 2.7 3 3.2 0 .6 1.6 3.1 3.5 5.6 9.4 12.4 17.5 25.6 17.5 28.6 0 .7.8 1.8 1.8 2.3 1.8 1 4.3 4.5 12.7 17.4 2 3.2 4.3 6.1 5.1 6.4s1.4 1.5 1.4 2.7c0 1.3 2.4 5.5 5.3 9.4 2.8 3.9 7.4 10.6 10.1 14.9s7.7 12.1 11.1 17.3 7.4 11.7 9 14.5c1.5 2.7 3.4 5.7 4.1 6.5s2.7 4.2 4.4 7.5 4.1 7.1 5.4 8.5c1.2 1.4 2.7 3.6 3.3 5s3.8 6.1 7.1 10.6c8.1 11 11.4 12.6 28.2 13.5 6.9.4 112.6.5 235 .3s241.5-.4 264.8-.4c36.8 0 42.3-.2 42.8-1.5 1-2.5-3.9-10.9-19.8-34.3-8.4-12.3-17.8-26.4-20.8-31.3s-7.8-12.2-10.6-16.2c-9-12.9-56.4-84-61.7-92.6-1.6-2.5-3.7-5.5-4.7-6.6s-4.9-7.2-8.8-13.5c-3.8-6.3-8.5-13.8-10.3-16.6-1.9-2.8-4.6-7.1-6.1-9.5-7.9-12.7-17.2-26.8-45-68.2-5.1-7.6-10.5-15.7-11.9-18s-6.3-9.6-11-16.2c-4.6-6.6-10-14.5-11.8-17.5-1.9-3-5.8-9.1-8.7-13.5-11.3-17.5-16.2-25.2-19-30-1.5-2.8-8.8-14.1-16.1-25.1-7.3-11.1-13.3-20.4-13.3-20.7s-2.8-4.4-6.2-9.1c-6-8.2-8.6-12-15.3-22.7-1.6-2.7-5.7-8.8-8.9-13.6-3.3-4.8-9.7-14.7-14.4-21.8-11.1-17-33.8-51.4-38.8-58.8-2.1-3.2-5.2-8.1-6.9-10.7-1.6-2.7-7.2-11.1-12.3-18.7-26.1-39-48.5-73-50.2-76.3-.7-1.4-3.1-5.4-5.5-9-2.3-3.6-6.2-9.7-8.7-13.5-22.4-34.8-28.8-44.4-31.8-48-1.4-1.6-3.4-4.6-4.4-6.5s-3.1-5.1-4.5-7-4.3-6-6.4-9c-2-3-4.7-7-6-8.7-1.2-1.8-4.2-6.5-6.7-10.4s-7.3-11.4-10.7-16.5c-3.5-5.2-6.3-9.7-6.3-10.1 0-.3-2.4-4.2-5.4-8.7-2.9-4.4-6.3-9.7-7.4-11.7-1.2-1.9-3-4.3-4.1-5.3s-2.6-3.4-3.2-5.4c-.6-1.9-3.1-6.1-5.6-9.3-2.4-3.2-4.8-7.2-5.4-8.9-.6-1.6-1.5-3-2-3s-2.6-2.8-4.8-6.3c-2.2-3.4-6.5-10.3-9.7-15.2-9.4-14.9-10.7-16.7-15.6-23.1-2.5-3.4-5.8-8.4-7.2-11.2s-3.9-6.6-5.5-8.4c-1.5-1.8-3.4-4.4-4.1-5.8s-3-5-5.2-8c-7.1-9.9-14.8-22.2-14.8-23.5 0-.7-.7-1.9-1.7-2.6-1.6-1.4-11.6-15.8-18.1-26.1-1.7-2.9-4.7-7-6.5-9.3-4.4-5.6-15.7-22.5-15.7-23.6 0-.6-1-3.1-2.2-5.7s-2.1-5.4-2-6.3c.2-4.6 10.5-22 28.6-48.4 1.1-1.7 4.9-7.1 8.3-12.1s6.9-9.6 7.8-10.4c.8-.7 2.4-3.1 3.4-5.4 1-2.2 4.9-8.2 8.6-13.1 3.7-5 8-11.3 9.6-14.1s3.8-5.9 4.9-6.9 2-2.3 2-2.9 2.5-5 5.5-9.6c3-4.7 5.8-9.3 6.1-10.2.3-1 .9-1.8 1.4-1.8.4 0 2.2-2.6 4-5.8 5.4-9.7 14.2-23 19.6-29.6 2.8-3.4 5.5-7.3 5.9-8.7.7-2.2 18.8-32 24.2-39.9 1.4-1.9 4.8-7.1 7.8-11.5 2.9-4.4 6.5-9.1 7.9-10.4 1.4-1.4 2.6-3.1 2.6-3.9 0-1.8 3.5-7.7 7.2-12 1.5-1.8 2.8-3.9 2.8-4.6s2.5-4.6 5.5-8.7 5.5-8.1 5.5-8.9 1.1-2.3 2.4-3.5c1.3-1.1 3.5-4 4.8-6.5s6.7-11 12.1-19c5.3-8 10.3-15.4 11-16.5.8-1.1 3.8-5.8 6.7-10.5s6.5-10.3 8-12.5 3-5 3.4-6.2 2.7-5 5.2-8.3c2.4-3.3 4.4-6.4 4.4-6.9 0-1.3 8.3-8.7 12.1-10.7 3.2-1.7 8.5-1.9 81.3-2.2 42.8-.2 80.7-.1 84.2.3 3.7.4 7.3 1.4 8.5 2.4 3.6 2.9 1.8 7.4-9.9 25.5-5.9 9.1-12.5 19.5-14.7 23.1-2.2 3.7-5.3 8.1-6.9 9.9-1.6 1.7-3.3 4.4-3.9 6-1.1 3.3-6.2 11.2-7.8 12.2-.6.3-1.9 2.5-2.8 4.8-1 2.2-3.5 6.1-5.5 8.5-2.1 2.4-4 5.7-4.3 7.3s-1.6 3.6-2.9 4.4c-1.3.9-2.8 3.1-3.4 5-.7 1.9-2.6 5.4-4.4 7.7-1.7 2.3-6.2 8.9-10 14.7s-7.8 11.4-8.8 12.5c-2.1 2.4-19.6 28.3-21.8 32.2-3.8 7-16.5 27.1-18.6 29.3-1.2 1.4-4 5.4-6.1 9-3.6 6.1-10 15.9-18.9 29.3-2.1 3.2-4.8 7.5-5.9 9.7-1.1 2.1-3.4 5.5-5.1 7.7-1.7 2.1-4 5.6-5.2 7.8-1.1 2.2-3.6 5.5-5.6 7.4-1.9 1.9-3.8 4.8-4.2 6.5s-1.8 4.4-3.1 6.1c-1.4 1.6-5.4 7.7-8.9 13.4s-7 11.1-7.8 12c-.7.9-2.6 4.1-4.1 7.1-2.7 5.3-10.9 17.8-16.5 25-1.5 1.9-6.8 10-11.9 18-5.1 7.9-9.6 14.7-10.1 15s-1.7 2.4-2.6 4.5c-1.4 3.6-6.7 12.2-12.8 21-1.1 1.6-3.5 5.2-5.2 7.8-1.8 2.7-4.1 5.5-5.2 6.3-1.2.8-3.2 4-4.7 7.2-1.4 3.1-3.6 6.8-4.9 8.2-1.2 1.4-3.5 4.7-5.1 7.5-1.5 2.7-4.1 6.8-5.7 9-7.2 10-8.8 13-8.8 17.1s0 4.1 13.4 25.9c2 3.3 4.3 6.5 5.2 7.2.8.6 3 4.3 4.9 8.1 1.8 3.9 4.2 7.5 5.3 8.1s2.3 2.4 2.7 4.1c.4 1.6 2.6 5.1 4.9 7.7 2.4 2.7 5 6.2 5.9 7.8.8 1.7 3.4 5.3 5.6 8 2.3 2.7 4.1 5.7 4.1 6.6s1.2 3.3 2.8 5.2c8.4 11.2 8.8 11.9 10.6 19.7.3 1.4 2.1 3.6 4 4.9 2 1.3 3.8 3.1 4.1 4 .3 1 2 3.2 3.8 4.9l3.4 3.3 4.9-5.4c8.2-9 13.8-17 21.4-30.5.8-1.5 3.1-5.1 5-8.1 1.9-2.9 4.4-6.8 5.5-8.5 1.1-1.8 3.2-4.7 4.6-6.6 1.5-1.9 4.1-6.1 5.9-9.4 1.7-3.2 3.8-6.5 4.5-7.3.8-.8 3.1-4.4 5.1-8.1 2.1-3.7 5.4-8.7 7.4-11.2s4.2-5.6 4.9-6.9 6.6-10.2 13-19.8 12.3-18.7 13.2-20.3c2.2-3.9 13.7-20.9 16.7-24.5 1.4-1.6 3.3-4.8 4.2-7 1-2.2 6.1-10.3 11.5-18 5.3-7.7 10.2-14.9 10.7-16 .6-1.1 2.9-4.9 5.2-8.5s6.2-9.6 8.7-13.4c4.7-7.5 20.5-31.3 25.6-38.6 1.7-2.5 6.1-9.5 9.8-15.5 8.4-13.6 13.7-22.1 16.5-26 1.1-1.7 4-5.9 6.3-9.4s5.3-8.1 6.7-10.2c1.4-2 4.9-7.4 7.8-12s8-12.7 11.4-17.9c3.3-5.2 10.1-16 15.1-24 4.9-8 12.9-20.4 17.7-27.5 19.7-29.3 30.6-45.9 32.5-49.4 1.1-2.1 3.9-6.5 6.3-9.9 2.3-3.4 4.2-6.5 4.2-7 0-.4 1.3-2.3 2.8-4.2 1.6-1.9 3.9-5.3 5.2-7.5 2.9-5.1 6.6-10.8 17.2-27 4.7-7.2 9.5-14.9 10.7-17.2 1.2-2.4 4.9-8.4 8.4-13.4 8.6-12.6 10.2-15.2 17.9-27.6 3.6-5.9 7.7-12.2 9.1-13.8 1.3-1.7 3.6-5.3 5-8.2 2.5-4.8 13.1-21.1 20.5-31.3 1.8-2.5 7.2-10.4 11.9-17.5 4.7-7.2 9.4-14.1 10.4-15.4 1.1-1.3 1.9-3.3 1.9-4.5 0-1.3 1.3-3.2 3-4.4 1.7-1.3 3-2.7 3-3.3 0-.5 1-2.4 2.2-4.2 5.4-7.7 10.4-14.3 11.5-15 .6-.4 3-4 5.3-8 2.3-3.9 5.9-9.7 8-12.7s3.9-6.2 3.9-7.1c.1-1.6 5.9-7.5 9.3-9.5.8-.5 1.8-2.6 2.1-4.7l.6-3.7h-256.2c-215.6 0-256.6.2-258.2 1.4"/></svg>